<svg width="13" height="13" viewBox="0 0 13 13" fill="none" xmlns="http://www.w3.org/2000/svg">
<path d="M11.4045 10.0536L8.94813 7.59727C9.33106 6.96877 9.53305 6.24674 9.53183 5.51077C9.53183 3.28972 7.60718 1.36572 5.38613 1.36572C4.85808 1.36564 4.33518 1.46958 3.8473 1.67162C3.35942 1.87366 2.91613 2.16983 2.54274 2.54323C2.16935 2.91662 1.87317 3.35991 1.67113 3.84779C1.46909 4.33567 1.36515 4.85857 1.36523 5.38662C1.36523 7.60702 3.28988 9.53167 5.51028 9.53167C6.222 9.53231 6.92099 9.34292 7.53503 8.98307L10.0044 11.4537C10.1205 11.5695 10.2778 11.6346 10.4418 11.6346C10.6058 11.6346 10.7632 11.5695 10.8793 11.4537L11.4922 10.8408C11.7334 10.5996 11.6456 10.2948 11.4045 10.0536ZM2.60283 5.38662C2.60275 5.02106 2.67468 4.65906 2.81451 4.3213C2.95435 3.98354 3.15935 3.67663 3.41781 3.41811C3.67628 3.15959 3.98313 2.95452 4.32086 2.8146C4.65859 2.67469 5.02057 2.60267 5.38613 2.60267C6.92403 2.60267 8.29423 3.97222 8.29423 5.51077C8.29406 6.24907 8.0007 6.95708 7.47864 7.47913C6.95659 8.00119 6.24858 8.29455 5.51028 8.29472C3.97238 8.29407 2.60283 6.92387 2.60283 5.38662Z" fill="black"/>
</svg>
