<svg width="12" height="12" viewBox="0 0 12 12" fill="none" xmlns="http://www.w3.org/2000/svg">
<path d="M11.2822 9.8269L8.6369 7.1816C9.04929 6.50475 9.26681 5.72719 9.2655 4.9346C9.2655 2.5427 7.1928 0.470703 4.8009 0.470703C4.23223 0.470611 3.6691 0.582552 3.1437 0.800133C2.61829 1.01771 2.1409 1.33667 1.73878 1.73878C1.33667 2.1409 1.01771 2.61829 0.800133 3.1437C0.582552 3.6691 0.470611 4.23223 0.470703 4.8009C0.470703 7.1921 2.5434 9.2648 4.9346 9.2648C5.70107 9.26549 6.45382 9.06153 7.1151 8.674L9.7744 11.3347C9.89946 11.4594 10.0689 11.5295 10.2455 11.5295C10.4221 11.5295 10.5915 11.4594 10.7166 11.3347L11.3767 10.6746C11.6364 10.4149 11.5419 10.0866 11.2822 9.8269ZM1.8035 4.8009C1.80341 4.40722 1.88087 4.01738 2.03147 3.65363C2.18206 3.28989 2.40283 2.95938 2.68117 2.68097C2.95952 2.40256 3.28998 2.18171 3.65369 2.03103C4.01739 1.88036 4.40722 1.8028 4.8009 1.8028C6.4571 1.8028 7.9327 3.2777 7.9327 4.9346C7.93252 5.72969 7.61659 6.49216 7.05437 7.05438C6.49216 7.61659 5.72969 7.93252 4.9346 7.9327C3.2784 7.932 1.8035 6.4564 1.8035 4.8009Z" fill="black"/>
</svg>
