<svg width="225" height="256" viewBox="0 0 225 256" fill="none" xmlns="http://www.w3.org/2000/svg">
<path d="M0 20C0 18.8954 0.895431 18 2 18H223C224.105 18 225 18.8954 225 20V22C225 23.1046 224.105 24 223 24H2C0.895433 24 0 23.1046 0 22V20Z" fill="black" fill-opacity="0.15"/>
<rect y="35" width="225" height="112" rx="2" fill="#C4C4C4" fill-opacity="0.2"/>
<rect x="0.5" y="35.5" width="224" height="111" rx="1.5" stroke="black" stroke-opacity="0.4"/>
<g opacity="0.5">
<path d="M113 71V75" stroke="black" stroke-width="4" stroke-linecap="round" stroke-linejoin="round"/>
<path d="M123 73.6802L121 77.1432" stroke="black" stroke-width="4" stroke-linecap="round" stroke-linejoin="round"/>
<path d="M130.319 81L126.855 83" stroke="black" stroke-width="4" stroke-linecap="round" stroke-linejoin="round"/>
<path d="M133 91H129" stroke="black" stroke-width="4" stroke-linecap="round" stroke-linejoin="round"/>
<path d="M130.319 101L126.855 99" stroke="black" stroke-width="4" stroke-linecap="round" stroke-linejoin="round"/>
<path d="M123 108.32L121 104.856" stroke="black" stroke-width="4" stroke-linecap="round" stroke-linejoin="round"/>
<path d="M113 111V107" stroke="black" stroke-width="4" stroke-linecap="round" stroke-linejoin="round"/>
<path d="M103 108.32L105 104.856" stroke="black" stroke-width="4" stroke-linecap="round" stroke-linejoin="round"/>
<path d="M95.6797 101L99.1427 99" stroke="black" stroke-width="4" stroke-linecap="round" stroke-linejoin="round"/>
<path d="M93 91H97" stroke="black" stroke-width="4" stroke-linecap="round" stroke-linejoin="round"/>
<path d="M95.6797 81L99.1427 83" stroke="black" stroke-width="4" stroke-linecap="round" stroke-linejoin="round"/>
<path d="M103 73.6802L105 77.1432" stroke="black" stroke-width="4" stroke-linecap="round" stroke-linejoin="round"/>
</g>
<path d="M0 158C0 156.895 0.895431 156 2 156H191C192.105 156 193 156.895 193 158V172C193 173.105 192.105 174 191 174H2C0.895429 174 0 173.105 0 172V158Z" fill="black" fill-opacity="0.15"/>
<path d="M0 181C0 179.895 0.895431 179 2 179H148C149.105 179 150 179.895 150 181V195C150 196.105 149.105 197 148 197H2C0.895429 197 0 196.105 0 195V181Z" fill="black" fill-opacity="0.15"/>
<path d="M0 206C0 204.895 0.895431 204 2 204H48C49.1046 204 50 204.895 50 206V220C50 221.105 49.1046 222 48 222H2C0.895432 222 0 221.105 0 220V206Z" fill="black" fill-opacity="0.15"/>
</svg>
