<svg width="53" height="51" viewBox="0 0 53 51" fill="none" xmlns="http://www.w3.org/2000/svg">
<rect width="53" height="51" rx="25.5" fill="black"/>
<g clip-path="url(#clip0)">
<path d="M27.0829 16.2485H27.2275C28.5633 16.2534 35.3314 16.3022 37.1562 16.7929C37.7079 16.9427 38.2106 17.2346 38.6141 17.6395C39.0176 18.0445 39.3078 18.5482 39.4556 19.1004C39.6197 19.7179 39.7351 20.5353 39.8131 21.3787L39.8294 21.5477L39.8651 21.9702L39.8781 22.1392C39.9837 23.6244 39.9967 25.0154 39.9984 25.3193V25.4412C39.9967 25.7564 39.9821 27.2417 39.8651 28.7887L39.8521 28.9593L39.8375 29.1283C39.7562 30.0578 39.636 30.9808 39.4556 31.66C39.3082 32.2125 39.0182 32.7164 38.6147 33.1214C38.2111 33.5264 37.7081 33.8182 37.1562 33.9675C35.2712 34.4745 28.1066 34.5103 27.1137 34.5119H26.883C26.3809 34.5119 24.3041 34.5022 22.1266 34.4274L21.8504 34.4177L21.709 34.4112L21.4311 34.3998L21.1532 34.3884C19.3495 34.3088 17.6319 34.1804 16.8405 33.9659C16.2888 33.8167 15.786 33.5252 15.3824 33.1205C14.9789 32.7158 14.6888 32.2122 14.5411 31.66C14.3608 30.9824 14.2405 30.0578 14.1592 29.1283L14.1463 28.9577L14.1332 28.7887C14.0531 27.6876 14.0086 26.5841 14 25.4802L14 25.2803C14.0033 24.9309 14.0163 23.7235 14.104 22.391L14.1154 22.2237L14.1203 22.1392L14.1332 21.9702L14.169 21.5477L14.1852 21.3787C14.2632 20.5353 14.3786 19.7163 14.5428 19.1004C14.6901 18.548 14.9801 18.044 15.3837 17.639C15.7873 17.234 16.2902 16.9422 16.8421 16.7929C17.6335 16.5817 19.3511 16.4517 21.1549 16.3704L21.4311 16.359L21.7106 16.3493L21.8504 16.3444L22.1283 16.333C23.6748 16.2833 25.2219 16.2556 26.7692 16.2502H27.0829V16.2485ZM24.4 21.4648V29.294L31.1551 25.381L24.4 21.4648Z" fill="url(#paint0_linear)"/>
</g>
<defs>
<linearGradient id="paint0_linear" x1="10.0757" y1="18.3972" x2="36.932" y2="36.3309" gradientUnits="userSpaceOnUse">
<stop stop-color="#FFC700"/>
<stop offset="1" stop-color="#C4C4C4"/>
</linearGradient>
<clipPath id="clip0">
<rect width="26" height="26" fill="white" transform="translate(14 13)"/>
</clipPath>
</defs>
</svg>
